<svg width="410" height="141" viewBox="0 0 410 141" fill="none" xmlns="http://www.w3.org/2000/svg">
<path d="M405 28.58L309 5L37 5L5 12.86V112.42L101 136H373L405 128.14L405 28.58Z" stroke="url(#paint0_linear_350_5)" stroke-width="10"/>
<path d="M65.288 92V82.08H46.152V75.104C47.0907 73.2267 48.264 71.1147 49.672 68.768C51.08 66.4213 52.6373 63.9893 54.344 61.472C56.0933 58.9547 57.928 56.5013 59.848 54.112C61.768 51.7227 63.688 49.568 65.608 47.648H74.632V74.272H79.368V82.08H74.632V92H65.288ZM55.24 74.272H65.288V59.296C64.4773 60.3627 63.6027 61.4933 62.664 62.688C61.768 63.8827 60.872 65.12 59.976 66.4C59.08 67.68 58.2267 68.9813 57.416 70.304C56.6053 71.584 55.88 72.9067 55.24 74.272ZM94.693 92.896C91.365 92.896 88.5063 92 86.117 90.208C83.7277 88.416 81.893 85.8133 80.613 82.4C79.333 78.944 78.693 74.72 78.693 69.728C78.693 64.7787 79.3543 60.5973 80.677 57.184C81.9997 53.728 83.8557 51.104 86.245 49.312C88.6343 47.52 91.4503 46.624 94.693 46.624C99.685 46.624 103.589 48.6293 106.405 52.64C109.264 56.608 110.693 62.304 110.693 69.728C110.693 77.1947 109.264 82.9333 106.405 86.944C103.589 90.912 99.685 92.896 94.693 92.896ZM94.693 84.704C96.3143 84.704 97.573 84.0853 98.469 82.848C99.365 81.568 100.005 79.7973 100.389 77.536C100.773 75.2747 100.965 72.672 100.965 69.728C100.965 66.784 100.773 64.2027 100.389 61.984C100.005 59.7227 99.365 57.9733 98.469 56.736C97.573 55.456 96.3143 54.816 94.693 54.816C93.1143 54.816 91.8557 55.456 90.917 56.736C90.021 57.9733 89.381 59.7227 88.997 61.984C88.613 64.2027 88.421 66.784 88.421 69.728C88.421 72.672 88.613 75.2747 88.997 77.536C89.381 79.7973 90.021 81.568 90.917 82.848C91.8557 84.0853 93.1143 84.704 94.693 84.704ZM128.578 92V82.08H109.442V75.104C110.381 73.2267 111.554 71.1147 112.962 68.768C114.37 66.4213 115.927 63.9893 117.634 61.472C119.383 58.9547 121.218 56.5013 123.138 54.112C125.058 51.7227 126.978 49.568 128.898 47.648H137.922V74.272H142.658V82.08H137.922V92H128.578ZM118.53 74.272H128.578V59.296C127.767 60.3627 126.893 61.4933 125.954 62.688C125.058 63.8827 124.162 65.12 123.266 66.4C122.37 67.68 121.517 68.9813 120.706 70.304C119.895 71.584 119.17 72.9067 118.53 74.272ZM144.415 92V59.488C146.079 59.0187 148.17 58.592 150.687 58.208C153.247 57.7813 155.764 57.568 158.239 57.568C160.671 57.568 162.634 57.888 164.127 58.528C165.663 59.1253 166.922 59.8507 167.903 60.704C168.842 60.0213 169.844 59.4667 170.911 59.04C172.02 58.5707 173.151 58.208 174.303 57.952C175.455 57.696 176.522 57.568 177.503 57.568C181.087 57.568 183.839 58.2293 185.759 59.552C187.722 60.832 189.066 62.624 189.791 64.928C190.559 67.232 190.943 69.92 190.943 72.992V92H181.407V74.144C181.407 72.096 181.236 70.4533 180.895 69.216C180.554 67.9787 179.999 67.0827 179.231 66.528C178.463 65.9733 177.439 65.696 176.159 65.696C175.818 65.696 175.37 65.76 174.815 65.888C174.303 65.9733 173.77 66.1227 173.215 66.336C172.66 66.5493 172.17 66.784 171.743 67.04C172.042 68.0213 172.234 69.0667 172.319 70.176C172.404 71.2427 172.447 72.3947 172.447 73.632V92H162.911V74.144C162.911 72.096 162.74 70.4533 162.399 69.216C162.058 67.9787 161.503 67.0827 160.735 66.528C159.967 65.9733 158.943 65.696 157.663 65.696C157.279 65.696 156.874 65.7173 156.447 65.76C156.02 65.76 155.594 65.7813 155.167 65.824C154.783 65.8667 154.378 65.9307 153.951 66.016V92H144.415ZM210.099 92.896C206.813 92.896 203.912 92.1493 201.395 90.656C198.92 89.1627 196.979 87.0933 195.571 84.448C194.205 81.76 193.523 78.6453 193.523 75.104C193.523 71.5627 194.227 68.4693 195.635 65.824C197.085 63.1787 199.069 61.1307 201.587 59.68C204.104 58.1867 206.941 57.44 210.099 57.44C213.341 57.44 216.2 58.1867 218.675 59.68C221.149 61.1307 223.091 63.1787 224.499 65.824C225.907 68.4693 226.611 71.5627 226.611 75.104C226.611 78.6453 225.928 81.76 224.563 84.448C223.197 87.0933 221.277 89.1627 218.803 90.656C216.371 92.1493 213.469 92.896 210.099 92.896ZM210.099 84.704C211.549 84.704 212.765 84.32 213.747 83.552C214.771 82.7413 215.539 81.632 216.051 80.224C216.605 78.7733 216.883 77.0667 216.883 75.104C216.883 73.1413 216.605 71.456 216.051 70.048C215.539 68.64 214.771 67.552 213.747 66.784C212.765 66.016 211.549 65.632 210.099 65.632C208.648 65.632 207.411 66.016 206.387 66.784C205.363 67.552 204.573 68.64 204.019 70.048C203.507 71.456 203.251 73.1413 203.251 75.104C203.251 77.0667 203.507 78.7733 204.019 80.224C204.573 81.632 205.363 82.7413 206.387 83.552C207.411 84.32 208.648 84.704 210.099 84.704ZM241.422 104.032C239.374 104.032 237.326 103.84 235.278 103.456C233.23 103.115 231.331 102.645 229.582 102.048L231.246 94.048C232.739 94.6453 234.296 95.1147 235.918 95.456C237.582 95.7973 239.459 95.968 241.55 95.968C243.384 95.968 244.835 95.6907 245.902 95.136C247.011 94.624 247.8 93.8773 248.27 92.896C248.782 91.9147 249.038 90.8053 249.038 89.568V88.352C248.014 88.8213 246.947 89.184 245.838 89.44C244.771 89.6533 243.598 89.76 242.318 89.76C239.246 89.76 236.622 89.1413 234.446 87.904C232.312 86.6667 230.691 84.8747 229.582 82.528C228.472 80.1813 227.918 77.3653 227.918 74.08C227.918 70.752 228.6 67.8507 229.966 65.376C231.331 62.9013 233.294 60.9813 235.854 59.616C238.414 58.2507 241.486 57.568 245.07 57.568C247.331 57.568 249.72 57.76 252.238 58.144C254.755 58.528 256.867 58.976 258.574 59.488V87.776C258.574 93.28 257.166 97.3547 254.35 100C251.576 102.688 247.267 104.032 241.422 104.032ZM244.11 82.08C245.091 82.08 246.008 81.952 246.862 81.696C247.715 81.44 248.44 81.1413 249.038 80.8V65.568C248.568 65.4827 248.014 65.4187 247.374 65.376C246.734 65.2907 245.987 65.248 245.134 65.248C243.47 65.248 242.083 65.632 240.974 66.4C239.864 67.168 239.032 68.2133 238.478 69.536C237.923 70.8587 237.646 72.3733 237.646 74.08C237.646 75.4027 237.774 76.576 238.03 77.6C238.328 78.5813 238.734 79.4133 239.246 80.096C239.8 80.736 240.483 81.2267 241.294 81.568C242.104 81.9093 243.043 82.08 244.11 82.08ZM274.941 104.032C272.893 104.032 270.845 103.84 268.797 103.456C266.749 103.115 264.851 102.645 263.101 102.048L264.765 94.048C266.259 94.6453 267.816 95.1147 269.437 95.456C271.101 95.7973 272.979 95.968 275.069 95.968C276.904 95.968 278.355 95.6907 279.421 95.136C280.531 94.624 281.32 93.8773 281.789 92.896C282.301 91.9147 282.557 90.8053 282.557 89.568V88.352C281.533 88.8213 280.467 89.184 279.357 89.44C278.291 89.6533 277.117 89.76 275.837 89.76C272.765 89.76 270.141 89.1413 267.965 87.904C265.832 86.6667 264.211 84.8747 263.101 82.528C261.992 80.1813 261.437 77.3653 261.437 74.08C261.437 70.752 262.12 67.8507 263.485 65.376C264.851 62.9013 266.813 60.9813 269.373 59.616C271.933 58.2507 275.005 57.568 278.589 57.568C280.851 57.568 283.24 57.76 285.757 58.144C288.275 58.528 290.387 58.976 292.093 59.488V87.776C292.093 93.28 290.685 97.3547 287.869 100C285.096 102.688 280.787 104.032 274.941 104.032ZM277.629 82.08C278.611 82.08 279.528 81.952 280.381 81.696C281.235 81.44 281.96 81.1413 282.557 80.8V65.568C282.088 65.4827 281.533 65.4187 280.893 65.376C280.253 65.2907 279.507 65.248 278.653 65.248C276.989 65.248 275.603 65.632 274.493 66.4C273.384 67.168 272.552 68.2133 271.997 69.536C271.443 70.8587 271.165 72.3733 271.165 74.08C271.165 75.4027 271.293 76.576 271.549 77.6C271.848 78.5813 272.253 79.4133 272.765 80.096C273.32 80.736 274.003 81.2267 274.813 81.568C275.624 81.9093 276.563 82.08 277.629 82.08ZM312.75 92.896C308.696 92.896 305.347 92.128 302.701 90.592C300.099 89.056 298.157 86.9653 296.877 84.32C295.597 81.6747 294.957 78.7093 294.957 75.424C294.957 71.456 295.725 68.1493 297.261 65.504C298.84 62.816 300.845 60.8107 303.278 59.488C305.752 58.1227 308.355 57.44 311.086 57.44C314.286 57.44 317.038 58.1013 319.342 59.424C321.646 60.704 323.416 62.624 324.653 65.184C325.934 67.744 326.574 70.9227 326.574 74.72C326.574 75.2747 326.552 75.8933 326.51 76.576C326.467 77.216 326.424 77.792 326.382 78.304H304.75C304.963 80.2667 305.88 81.824 307.502 82.976C309.123 84.128 311.299 84.704 314.03 84.704C315.779 84.704 317.485 84.5547 319.149 84.256C320.856 83.9147 322.243 83.5093 323.31 83.04L324.59 90.784C323.566 91.296 321.923 91.7653 319.662 92.192C317.443 92.6613 315.139 92.896 312.75 92.896ZM304.75 71.776H317.358C317.315 70.7093 317.08 69.6853 316.653 68.704C316.227 67.7227 315.566 66.912 314.67 66.272C313.816 65.632 312.664 65.312 311.214 65.312C309.763 65.312 308.59 65.632 307.694 66.272C306.84 66.8693 306.179 67.6587 305.71 68.64C305.24 69.6213 304.92 70.6667 304.75 71.776ZM345.389 92.832C341.677 92.832 338.519 92.128 335.917 90.72C333.314 89.312 331.309 87.3067 329.901 84.704C328.535 82.0587 327.853 78.944 327.853 75.36C327.853 71.6907 328.45 68.5333 329.645 65.888C330.839 63.2427 332.546 61.216 334.765 59.808C337.026 58.3573 339.735 57.632 342.893 57.632C344.215 57.632 345.389 57.76 346.413 58.016C347.479 58.272 348.546 58.6347 349.613 59.104V43.872L359.149 42.336V90.912C358.039 91.2533 356.695 91.5733 355.117 91.872C353.538 92.1707 351.895 92.4053 350.189 92.576C348.525 92.7467 346.925 92.832 345.389 92.832ZM345.453 84.704C346.306 84.704 347.095 84.6827 347.821 84.64C348.546 84.5547 349.143 84.4693 349.613 84.384V67.04C349.015 66.656 348.226 66.336 347.245 66.08C346.306 65.824 345.346 65.696 344.365 65.696C343.213 65.696 342.21 65.888 341.357 66.272C340.546 66.656 339.842 67.232 339.245 68C338.69 68.768 338.263 69.728 337.965 70.88C337.709 72.032 337.581 73.376 337.581 74.912C337.581 76.8747 337.879 78.6027 338.477 80.096C339.074 81.5467 339.949 82.6773 341.101 83.488C342.295 84.2987 343.746 84.704 345.453 84.704Z" fill="url(#paint1_linear_350_5)"/>
<path d="M80.264 111.96V100.952C80.5093 100.877 80.792 100.808 81.112 100.744C81.4427 100.669 81.8053 100.611 82.2 100.568C82.5947 100.525 83.0107 100.504 83.448 100.504C84.312 100.504 85.0533 100.68 85.672 101.032C86.3013 101.373 86.7867 101.869 87.128 102.52C87.48 103.171 87.656 103.944 87.656 104.84C87.656 105.693 87.5067 106.445 87.208 107.096C86.92 107.747 86.4987 108.259 85.944 108.632C85.4 108.995 84.728 109.176 83.928 109.176C83.48 109.176 83.0747 109.117 82.712 109C82.36 108.883 82.0773 108.76 81.864 108.632V111.96H80.264ZM83.688 107.8C84.104 107.8 84.456 107.731 84.744 107.592C85.0427 107.443 85.2827 107.24 85.464 106.984C85.656 106.717 85.7947 106.408 85.88 106.056C85.9653 105.693 86.008 105.299 86.008 104.872C86.008 104.253 85.9013 103.72 85.688 103.272C85.4853 102.813 85.192 102.467 84.808 102.232C84.424 101.997 83.9653 101.88 83.432 101.88C83.048 101.88 82.7227 101.901 82.456 101.944C82.2 101.976 82.0027 102.008 81.864 102.04V107.224C82.0347 107.352 82.28 107.48 82.6 107.608C82.9307 107.736 83.2933 107.8 83.688 107.8ZM94.6611 109.176C94.0211 109.176 93.4505 109.091 92.9491 108.92C92.4585 108.749 92.0745 108.467 91.7971 108.072C91.5198 107.677 91.3811 107.16 91.3811 106.52C91.3811 105.891 91.5358 105.389 91.8451 105.016C92.1545 104.632 92.5758 104.355 93.1091 104.184C93.6425 104.013 94.2345 103.928 94.8851 103.928C95.1838 103.928 95.4825 103.949 95.7811 103.992C96.0905 104.035 96.2931 104.077 96.3891 104.12V103.736C96.3891 103.395 96.3411 103.08 96.2451 102.792C96.1491 102.504 95.9678 102.269 95.7011 102.088C95.4451 101.907 95.0611 101.816 94.5491 101.816C94.0158 101.816 93.5785 101.853 93.2371 101.928C92.9065 102.003 92.6451 102.077 92.4531 102.152L92.2451 100.84C92.4585 100.755 92.7838 100.675 93.2211 100.6C93.6585 100.515 94.1491 100.472 94.6931 100.472C95.5038 100.472 96.1438 100.605 96.6131 100.872C97.0931 101.139 97.4345 101.517 97.6371 102.008C97.8398 102.488 97.9411 103.043 97.9411 103.672V108.792C97.6745 108.856 97.2478 108.936 96.6611 109.032C96.0745 109.128 95.4078 109.176 94.6611 109.176ZM94.8211 107.88C95.1518 107.88 95.4505 107.869 95.7171 107.848C95.9945 107.827 96.2185 107.8 96.3891 107.768V105.304C96.2931 105.261 96.1278 105.219 95.8931 105.176C95.6585 105.133 95.3758 105.112 95.0451 105.112C94.7145 105.112 94.3891 105.149 94.0691 105.224C93.7598 105.288 93.4985 105.416 93.2851 105.608C93.0825 105.8 92.9811 106.093 92.9811 106.488C92.9811 107.011 93.1465 107.373 93.4771 107.576C93.8078 107.779 94.2558 107.88 94.8211 107.88ZM105.371 112.008C104.848 112.008 104.352 111.965 103.883 111.88C103.413 111.795 103.003 111.688 102.651 111.56L102.939 110.2C103.248 110.317 103.616 110.419 104.043 110.504C104.469 110.6 104.923 110.648 105.403 110.648C105.979 110.648 106.443 110.573 106.795 110.424C107.157 110.275 107.419 110.04 107.579 109.72C107.749 109.4 107.835 108.995 107.835 108.504V108.056C107.653 108.163 107.392 108.28 107.051 108.408C106.72 108.525 106.315 108.584 105.835 108.584C105.141 108.584 104.517 108.445 103.963 108.168C103.408 107.88 102.971 107.443 102.651 106.856C102.341 106.269 102.187 105.523 102.187 104.616C102.187 103.816 102.347 103.107 102.667 102.488C102.997 101.869 103.467 101.384 104.075 101.032C104.683 100.68 105.408 100.504 106.251 100.504C106.933 100.504 107.541 100.552 108.075 100.648C108.608 100.744 109.051 100.845 109.403 100.952V108.328C109.403 109.619 109.067 110.552 108.395 111.128C107.733 111.715 106.725 112.008 105.371 112.008ZM106.011 107.256C106.384 107.256 106.731 107.203 107.051 107.096C107.381 106.989 107.637 106.861 107.819 106.712V102.008C107.669 101.965 107.472 101.928 107.227 101.896C106.992 101.853 106.672 101.832 106.267 101.832C105.744 101.832 105.301 101.949 104.939 102.184C104.576 102.419 104.299 102.749 104.107 103.176C103.915 103.592 103.819 104.077 103.819 104.632C103.819 105.091 103.877 105.485 103.995 105.816C104.112 106.147 104.272 106.419 104.475 106.632C104.677 106.845 104.907 107.005 105.163 107.112C105.429 107.208 105.712 107.256 106.011 107.256ZM117.948 109.192C116.966 109.192 116.161 109.005 115.532 108.632C114.913 108.248 114.454 107.731 114.156 107.08C113.868 106.429 113.724 105.688 113.724 104.856C113.724 103.875 113.905 103.064 114.268 102.424C114.63 101.773 115.1 101.288 115.676 100.968C116.262 100.637 116.876 100.472 117.516 100.472C118.241 100.472 118.865 100.627 119.388 100.936C119.921 101.235 120.332 101.693 120.62 102.312C120.908 102.92 121.052 103.693 121.052 104.632C121.052 104.728 121.046 104.835 121.036 104.952C121.036 105.069 121.03 105.181 121.02 105.288H115.356C115.409 106.077 115.654 106.696 116.092 107.144C116.54 107.581 117.206 107.8 118.092 107.8C118.604 107.8 119.041 107.752 119.404 107.656C119.777 107.56 120.06 107.469 120.252 107.384L120.492 108.696C120.31 108.792 119.98 108.899 119.5 109.016C119.03 109.133 118.513 109.192 117.948 109.192ZM115.388 104.088H119.484C119.473 103.64 119.393 103.245 119.244 102.904C119.094 102.563 118.876 102.296 118.588 102.104C118.31 101.912 117.958 101.816 117.532 101.816C117.094 101.816 116.721 101.923 116.412 102.136C116.102 102.349 115.862 102.632 115.692 102.984C115.521 103.325 115.42 103.693 115.388 104.088ZM131.37 109V100.952C131.733 100.856 132.197 100.76 132.762 100.664C133.328 100.557 133.978 100.504 134.714 100.504C135.61 100.504 136.304 100.664 136.794 100.984C137.296 101.304 137.648 101.752 137.85 102.328C138.053 102.893 138.154 103.56 138.154 104.328V109H136.57V104.648C136.57 103.965 136.506 103.427 136.378 103.032C136.261 102.627 136.058 102.333 135.77 102.152C135.482 101.971 135.077 101.88 134.554 101.88C134.202 101.88 133.877 101.901 133.578 101.944C133.29 101.976 133.088 102.008 132.97 102.04V109H131.37ZM146.317 109.208C145.549 109.208 144.866 109.027 144.269 108.664C143.682 108.301 143.223 107.795 142.893 107.144C142.562 106.483 142.397 105.709 142.397 104.824C142.397 103.949 142.562 103.187 142.893 102.536C143.234 101.885 143.698 101.379 144.285 101.016C144.882 100.653 145.559 100.472 146.317 100.472C147.085 100.472 147.762 100.653 148.349 101.016C148.935 101.379 149.394 101.885 149.725 102.536C150.066 103.187 150.237 103.949 150.237 104.824C150.237 105.709 150.071 106.483 149.741 107.144C149.41 107.795 148.951 108.301 148.365 108.664C147.789 109.027 147.106 109.208 146.317 109.208ZM146.317 107.816C146.797 107.816 147.202 107.693 147.533 107.448C147.874 107.203 148.135 106.856 148.317 106.408C148.509 105.96 148.605 105.432 148.605 104.824C148.605 104.227 148.509 103.704 148.317 103.256C148.135 102.808 147.874 102.467 147.533 102.232C147.202 101.987 146.797 101.864 146.317 101.864C145.847 101.864 145.442 101.987 145.101 102.232C144.759 102.467 144.493 102.808 144.301 103.256C144.119 103.704 144.029 104.227 144.029 104.824C144.029 105.432 144.119 105.96 144.301 106.408C144.493 106.856 144.759 107.203 145.101 107.448C145.442 107.693 145.847 107.816 146.317 107.816ZM157.449 109.176C156.692 109.176 156.095 109.048 155.657 108.792C155.231 108.525 154.927 108.136 154.745 107.624C154.575 107.112 154.489 106.493 154.489 105.768V98.376L156.073 98.104V100.664H159.193V101.992H156.073V105.816C156.073 106.317 156.132 106.717 156.249 107.016C156.367 107.304 156.537 107.507 156.761 107.624C156.996 107.741 157.284 107.8 157.625 107.8C157.988 107.8 158.303 107.763 158.569 107.688C158.847 107.603 159.076 107.523 159.257 107.448L159.529 108.712C159.327 108.808 159.044 108.909 158.681 109.016C158.319 109.123 157.908 109.176 157.449 109.176ZM169.33 109V99.96C169.33 98.872 169.602 98.04 170.146 97.464C170.701 96.8773 171.528 96.584 172.626 96.584C173.074 96.584 173.453 96.6213 173.762 96.696C174.082 96.7707 174.312 96.8453 174.45 96.92L174.146 98.216C173.986 98.1413 173.789 98.0827 173.554 98.04C173.32 97.9867 173.053 97.96 172.754 97.96C172.082 97.96 171.608 98.1307 171.33 98.472C171.064 98.8133 170.93 99.32 170.93 99.992V100.664H174.098V101.992H170.93V109H169.33ZM181.292 109.208C180.524 109.208 179.842 109.027 179.244 108.664C178.658 108.301 178.199 107.795 177.868 107.144C177.538 106.483 177.372 105.709 177.372 104.824C177.372 103.949 177.538 103.187 177.868 102.536C178.21 101.885 178.674 101.379 179.26 101.016C179.858 100.653 180.535 100.472 181.292 100.472C182.06 100.472 182.738 100.653 183.324 101.016C183.911 101.379 184.37 101.885 184.7 102.536C185.042 103.187 185.212 103.949 185.212 104.824C185.212 105.709 185.047 106.483 184.716 107.144C184.386 107.795 183.927 108.301 183.34 108.664C182.764 109.027 182.082 109.208 181.292 109.208ZM181.292 107.816C181.772 107.816 182.178 107.693 182.508 107.448C182.85 107.203 183.111 106.856 183.292 106.408C183.484 105.96 183.58 105.432 183.58 104.824C183.58 104.227 183.484 103.704 183.292 103.256C183.111 102.808 182.85 102.467 182.508 102.232C182.178 101.987 181.772 101.864 181.292 101.864C180.823 101.864 180.418 101.987 180.076 102.232C179.735 102.467 179.468 102.808 179.276 103.256C179.095 103.704 179.004 104.227 179.004 104.824C179.004 105.432 179.095 105.96 179.276 106.408C179.468 106.856 179.735 107.203 180.076 107.448C180.418 107.693 180.823 107.816 181.292 107.816ZM192.889 109.176C192.014 109.176 191.326 109.016 190.825 108.696C190.324 108.365 189.966 107.912 189.753 107.336C189.55 106.76 189.449 106.088 189.449 105.32V100.664H191.033V105.016C191.033 105.688 191.097 106.227 191.225 106.632C191.353 107.037 191.561 107.331 191.849 107.512C192.148 107.693 192.548 107.784 193.049 107.784C193.401 107.784 193.726 107.768 194.025 107.736C194.324 107.693 194.532 107.656 194.649 107.624V100.664H196.217V108.712C195.876 108.808 195.417 108.909 194.841 109.016C194.276 109.123 193.625 109.176 192.889 109.176ZM201.003 109V100.952C201.366 100.856 201.83 100.76 202.395 100.664C202.961 100.557 203.611 100.504 204.347 100.504C205.243 100.504 205.937 100.664 206.427 100.984C206.929 101.304 207.281 101.752 207.483 102.328C207.686 102.893 207.787 103.56 207.787 104.328V109H206.203V104.648C206.203 103.965 206.139 103.427 206.011 103.032C205.894 102.627 205.691 102.333 205.403 102.152C205.115 101.971 204.71 101.88 204.187 101.88C203.835 101.88 203.51 101.901 203.211 101.944C202.923 101.976 202.721 102.008 202.603 102.04V109H201.003ZM216.222 109.192C215.368 109.192 214.627 109.021 213.998 108.68C213.368 108.328 212.883 107.827 212.542 107.176C212.2 106.525 212.03 105.752 212.03 104.856C212.03 103.981 212.174 103.219 212.462 102.568C212.76 101.917 213.187 101.411 213.742 101.048C214.307 100.675 214.984 100.488 215.774 100.488C216.232 100.488 216.632 100.552 216.974 100.68C217.326 100.797 217.608 100.92 217.822 101.048V96.856L219.406 96.584V108.744C219.171 108.808 218.888 108.877 218.558 108.952C218.238 109.027 217.88 109.085 217.486 109.128C217.091 109.171 216.67 109.192 216.222 109.192ZM216.238 107.816C216.622 107.816 216.947 107.8 217.214 107.768C217.48 107.725 217.683 107.683 217.822 107.64V102.44C217.651 102.312 217.4 102.189 217.07 102.072C216.739 101.944 216.376 101.88 215.982 101.88C215.566 101.88 215.208 101.949 214.91 102.088C214.622 102.227 214.382 102.429 214.19 102.696C214.008 102.963 213.875 103.277 213.79 103.64C213.704 103.992 213.662 104.381 213.662 104.808C213.662 105.437 213.768 105.976 213.982 106.424C214.195 106.872 214.494 107.219 214.878 107.464C215.262 107.699 215.715 107.816 216.238 107.816Z" fill="url(#paint2_linear_350_5)"/>
<defs>
<linearGradient id="paint0_linear_350_5" x1="405" y1="136" x2="4.99998" y2="5" gradientUnits="userSpaceOnUse">
<stop stop-color="#EC407A"/>
<stop offset="1" stop-color="#AB47BC"/>
</linearGradient>
<linearGradient id="paint1_linear_350_5" x1="45" y1="32" x2="365.17" y2="103.78" gradientUnits="userSpaceOnUse">
<stop stop-color="#AB47BC"/>
<stop offset="1" stop-color="#EC407A"/>
</linearGradient>
<linearGradient id="paint2_linear_350_5" x1="79" y1="94" x2="207.642" y2="146.029" gradientUnits="userSpaceOnUse">
<stop stop-color="#AB47BC"/>
<stop offset="1" stop-color="#EC407A"/>
</linearGradient>
</defs>
</svg>
